<svg width="47.267" height="64.456" viewBox="0 0 47.267 64.456" xmlns="http://www.w3.org/2000/svg"><g id="svgGroup" stroke-linecap="round" fill-rule="evenodd" font-size="9pt" stroke="#000" stroke-width="0.25mm" fill="#000" style="stroke:#000;stroke-width:0.25mm;fill:#000"><path d="M 14.648 32.324 L 14.648 0 L 0 0 L 0 2.441 L 7.324 2.441 L 7.324 55.176 A 12.133 12.133 0 0 1 7.203 56.968 Q 6.876 59.146 5.671 60.073 A 3.109 3.109 0 0 1 4.785 60.547 A 6.814 6.814 0 0 1 3.845 60.777 Q 2.412 61.035 0 61.035 L 0 63.477 L 12.305 63.477 L 13.184 57.031 A 14.903 14.903 0 0 0 23.574 64.069 A 20.562 20.562 0 0 0 25.879 64.355 A 12.912 12.912 0 0 0 26.772 64.437 A 10.44 10.44 0 0 0 27.344 64.453 A 18.662 18.662 0 0 0 41.148 58.693 A 23.228 23.228 0 0 0 41.797 58.008 A 21.85 21.85 0 0 0 46.955 46.56 A 29.765 29.765 0 0 0 47.266 42.188 A 31.71 31.71 0 0 0 46.573 35.356 Q 45.572 30.815 43.121 27.434 A 18.793 18.793 0 0 0 41.406 25.391 A 14.697 14.697 0 0 0 30.767 20.997 A 18.768 18.768 0 0 0 30.566 20.996 A 18.287 18.287 0 0 0 24.109 22.076 Q 19.303 23.878 16.428 28.683 A 21.278 21.278 0 0 0 15.43 30.566 A 10.666 10.666 0 0 0 14.786 31.94 A 9.476 9.476 0 0 0 14.648 32.324 Z M 32.854 26.333 A 9.691 9.691 0 0 0 27.539 24.902 Q 23.535 24.902 20.41 27.637 A 15.361 15.361 0 0 0 16.709 32.793 Q 15.551 35.348 15.014 38.597 A 37.697 37.697 0 0 0 14.551 44.727 A 33.445 33.445 0 0 0 14.873 49.483 A 24.263 24.263 0 0 0 16.016 54.199 Q 17.849 58.929 21.257 60.796 A 10.468 10.468 0 0 0 26.367 62.012 A 12.485 12.485 0 0 0 26.632 62.009 A 10.63 10.63 0 0 0 31.543 60.742 A 11.778 11.778 0 0 0 32.218 60.34 Q 37.251 57.102 38.53 48.974 A 39.42 39.42 0 0 0 38.965 42.871 A 37.165 37.165 0 0 0 38.75 38.783 A 27.282 27.282 0 0 0 37.988 34.668 A 25.032 25.032 0 0 0 37.816 34.014 Q 36.281 28.513 32.854 26.333 Z" vector-effect="non-scaling-stroke"/></g>
<style>
    @media (prefers-color-scheme:dark){:root{filter:invert(100%)}}
  </style>
</svg>